<mxfile host="app.diagrams.net" modified="2023-04-22T07:34:58.551Z" agent="Mozilla/5.0 (X11; Linux x86_64) AppleWebKit/537.36 (KHTML, like Gecko) Chrome/108.0.0.0 Safari/537.36" version="21.2.1" etag="rA2qJrbKUN1CIyC_vEXx" type="github">
  <diagram name="Page-1" id="GwLcwr9sswFWEp_0Rz3j">
    <mxGraphModel>
      <root>
        <mxCell id="0" />
        <mxCell id="1" parent="0" />
      </root>
    </mxGraphModel>
  </diagram>
</mxfile>
